<?xml version="1.0" encoding="UTF-8"?> <svg xmlns="http://www.w3.org/2000/svg" xmlns:xlink="http://www.w3.org/1999/xlink" id="Group_4564" data-name="Group 4564" width="251.156" height="84" viewBox="0 0 251.156 84"><defs><clipPath id="clip-path"><rect id="Rectangle_3665" data-name="Rectangle 3665" width="251.156" height="84" fill="none"></rect></clipPath></defs><g id="Group_4563" data-name="Group 4563" clip-path="url(#clip-path)"><path id="Path_4036" data-name="Path 4036" d="M21,41.99a20.9,20.9,0,0,0,12.985-4.5L38.5,42.01l3.476-3.475,3.475,3.475,4.521-4.521a20.991,20.991,0,1,0-7.987-16.526A20.995,20.995,0,1,0,21,41.99M62.983,4.969a16.047,16.047,0,1,1-9.474,28.987l4.782-4.781L54.8,25.688l-4.778,4.778a16.035,16.035,0,0,1,12.957-25.5M41.989,21.055A20.9,20.9,0,0,0,46.492,34l-4.513,4.512L37.469,34a20.9,20.9,0,0,0,4.52-12.948M21,4.948a16.035,16.035,0,0,1,12.94,25.521l-4.781-4.781-3.486,3.486,4.778,4.778a16.043,16.043,0,1,1-9.45-29M62.983,42.01A20.9,20.9,0,0,0,50,46.513L45.474,41.99,42,45.466,38.524,41.99,34,46.511a20.991,20.991,0,1,0,7.987,16.526A20.995,20.995,0,1,0,62.983,42.01M21,79.031a16.046,16.046,0,1,1,9.474-28.987l-4.781,4.781,3.486,3.486,4.778-4.778A16.035,16.035,0,0,1,21,79.031M41.989,62.953A20.894,20.894,0,0,0,37.487,50L42,45.488,46.509,50a20.9,20.9,0,0,0-4.52,12.955m20.994,16.1a16.035,16.035,0,0,1-12.94-25.521l4.781,4.781,3.486-3.486-4.778-4.778a16.043,16.043,0,1,1,9.45,29" transform="translate(0 0)" fill="#341b37"></path><path id="Path_4037" data-name="Path 4037" d="M222.521,34.973a5,5,0,0,1-1.9-2.049,6.563,6.563,0,0,1-.679-3.048v-8.89h3.007V29.61a3.265,3.265,0,0,0,.892,2.4,3.33,3.33,0,0,0,4.592-.027,3.438,3.438,0,0,0,.9-2.5V20.986h2.982v14.4h-2.848V33.6a4.111,4.111,0,0,1-1.677,1.557,5.238,5.238,0,0,1-2.421.546,5.444,5.444,0,0,1-2.848-.732" transform="translate(-92.68 -8.843)" fill="#341b37"></path><path id="Path_4038" data-name="Path 4038" d="M247.286,34.341a3.7,3.7,0,0,1-1.357-2.994,4.05,4.05,0,0,1,1.184-2.941,6.578,6.578,0,0,1,3.686-1.637l4.577-.745v-.559a2.2,2.2,0,0,0-.785-1.743,3.084,3.084,0,0,0-2.089-.679,3.6,3.6,0,0,0-2.089.612,3.639,3.639,0,0,0-1.318,1.624l-2.5-1.251a4.936,4.936,0,0,1,1.318-1.863,6.742,6.742,0,0,1,2.1-1.264,7.1,7.1,0,0,1,2.568-.466,6.753,6.753,0,0,1,3.007.639,5.057,5.057,0,0,1,2.049,1.77,4.656,4.656,0,0,1,.746,2.622v9.688h-2.875V33.476a5.3,5.3,0,0,1-2,1.477,6.7,6.7,0,0,1-2.688.519,5.342,5.342,0,0,1-3.54-1.131m2.409-1.757a2.436,2.436,0,0,0,1.61.519,4.208,4.208,0,0,0,2.129-.519,3.785,3.785,0,0,0,1.424-1.424,3.945,3.945,0,0,0,.518-2v-.772l-3.992.692a3.107,3.107,0,0,0-1.757.745,1.913,1.913,0,0,0-.559,1.411,1.665,1.665,0,0,0,.625,1.344" transform="translate(-103.632 -8.611)" fill="#341b37"></path><path id="Path_4039" data-name="Path 4039" d="M273.069,20.85h2.875v1.837a3.421,3.421,0,0,1,1.544-1.544,5.174,5.174,0,0,1,2.289-.479h.878v2.741H279.4a3.257,3.257,0,0,0-2.409.918,3.548,3.548,0,0,0-.918,2.622v8.3h-3.008Z" transform="translate(-115.068 -8.708)" fill="#341b37"></path><path id="Path_4040" data-name="Path 4040" d="M291.66,31.864a4.92,4.92,0,0,1-1.25-3.593V21.3h-2.529V18.582h.4A2.066,2.066,0,0,0,289.85,18a2.214,2.214,0,0,0,.56-1.6V15.282h3.007v3.3h3.274V21.3h-3.274v6.84a2.524,2.524,0,0,0,.546,1.717,2.35,2.35,0,0,0,1.85.625,6.314,6.314,0,0,0,.985-.08v2.582c-.231.035-.5.071-.8.106a7.146,7.146,0,0,1-.825.053,4.693,4.693,0,0,1-3.513-1.278" transform="translate(-121.31 -6.44)" fill="#341b37"></path><path id="Path_4041" data-name="Path 4041" d="M308.958,34.474a7.126,7.126,0,0,1-2.595-2.715,8.354,8.354,0,0,1-.014-7.692,6.981,6.981,0,0,1,2.542-2.662,6.892,6.892,0,0,1,3.632-.971,6.79,6.79,0,0,1,3.713.971,6.5,6.5,0,0,1,2.343,2.555,7.456,7.456,0,0,1,.811,3.447q0,.346-.027.719a4.116,4.116,0,0,1-.106.692h-10.7a4.109,4.109,0,0,0,4.232,3.992,3.983,3.983,0,0,0,2.223-.6,4.526,4.526,0,0,0,1.451-1.5l2.448,1.2a5.615,5.615,0,0,1-2.3,2.555,7.788,7.788,0,0,1-7.653.013m1.011-10.607a4.009,4.009,0,0,0-1.357,2.555H316.2a3.512,3.512,0,0,0-1.118-2.5,3.626,3.626,0,0,0-2.555-.958,3.883,3.883,0,0,0-2.555.9" transform="translate(-128.7 -8.611)" fill="#341b37"></path><path id="Path_4042" data-name="Path 4042" d="M335.107,31.864a4.919,4.919,0,0,1-1.25-3.593V21.3h-2.529V18.582h.4A2.066,2.066,0,0,0,333.3,18a2.214,2.214,0,0,0,.56-1.6V15.282h3.007v3.3h3.274V21.3h-3.274v6.84a2.524,2.524,0,0,0,.546,1.717,2.35,2.35,0,0,0,1.85.625,6.314,6.314,0,0,0,.985-.08v2.582c-.232.035-.5.071-.8.106a7.148,7.148,0,0,1-.825.053,4.693,4.693,0,0,1-3.513-1.278" transform="translate(-139.618 -6.44)" fill="#341b37"></path><path id="Path_4043" data-name="Path 4043" d="M185.933,74.76a9.318,9.318,0,0,1-3.127-2.143,9.758,9.758,0,0,1-2.063-3.26,11.777,11.777,0,0,1,0-8.171,9.739,9.739,0,0,1,2.049-3.247,9.283,9.283,0,0,1,3.114-2.129,9.989,9.989,0,0,1,3.926-.759,9.438,9.438,0,0,1,3.753.719,8.781,8.781,0,0,1,2.821,1.876,7.111,7.111,0,0,1,1.65,2.515l-2.821,1.331a5.748,5.748,0,0,0-2.036-2.6,5.642,5.642,0,0,0-3.368-1A6.314,6.314,0,0,0,184,61.412a9.2,9.2,0,0,0,0,7.732,6.328,6.328,0,0,0,2.356,2.582,6.532,6.532,0,0,0,3.473.918,5.582,5.582,0,0,0,5.4-3.567l2.821,1.331a7.3,7.3,0,0,1-1.65,2.5,8.663,8.663,0,0,1-2.821,1.89,9.438,9.438,0,0,1-3.753.719,9.921,9.921,0,0,1-3.9-.759" transform="translate(-75.854 -23.198)" fill="#913c4d"></path><path id="Path_4044" data-name="Path 4044" d="M218.067,78.488a7.731,7.731,0,0,1-2.742-10.42,7.245,7.245,0,0,1,2.715-2.662,7.966,7.966,0,0,1,7.625,0,7.274,7.274,0,0,1,2.7,2.662,7.991,7.991,0,0,1-.013,7.759,7.339,7.339,0,0,1-2.714,2.675,7.817,7.817,0,0,1-7.572-.013m6.041-2.422a4.306,4.306,0,0,0,1.57-1.69,5.115,5.115,0,0,0,.572-2.435,5.037,5.037,0,0,0-.572-2.422,4.337,4.337,0,0,0-1.57-1.677,4.437,4.437,0,0,0-4.5,0,4.328,4.328,0,0,0-1.57,1.677,5.031,5.031,0,0,0-.573,2.422,5.109,5.109,0,0,0,.573,2.435,4.3,4.3,0,0,0,1.57,1.69,4.436,4.436,0,0,0,4.5,0" transform="translate(-90.315 -27.152)" fill="#913c4d"></path><path id="Path_4045" data-name="Path 4045" d="M244.916,64.753h2.875v1.783a3.811,3.811,0,0,1,1.65-1.57,5.223,5.223,0,0,1,2.369-.532,5.392,5.392,0,0,1,2.662.665,4.673,4.673,0,0,1,1.836,1.783,4.7,4.7,0,0,1,1.89-1.837,5.546,5.546,0,0,1,2.608-.612,5.4,5.4,0,0,1,2.728.692,5.131,5.131,0,0,1,1.916,1.9,5.482,5.482,0,0,1,.705,2.808v9.316h-3.008V70.662a3.59,3.59,0,0,0-.838-2.515,2.834,2.834,0,0,0-2.2-.918,2.917,2.917,0,0,0-2.222.918,3.52,3.52,0,0,0-.865,2.515v8.491h-2.981V70.662a3.555,3.555,0,0,0-.852-2.515,3.117,3.117,0,0,0-4.418,0,3.553,3.553,0,0,0-.852,2.515v8.491h-3.008Z" transform="translate(-103.205 -27.152)" fill="#913c4d"></path><path id="Path_4046" data-name="Path 4046" d="M286.73,64.753H289.6v1.783a3.811,3.811,0,0,1,1.65-1.57,5.223,5.223,0,0,1,2.369-.532,5.392,5.392,0,0,1,2.662.665,4.673,4.673,0,0,1,1.836,1.783,4.7,4.7,0,0,1,1.89-1.837,5.546,5.546,0,0,1,2.608-.612,5.4,5.4,0,0,1,2.728.692,5.131,5.131,0,0,1,1.916,1.9,5.482,5.482,0,0,1,.705,2.808v9.316h-3.008V70.662a3.589,3.589,0,0,0-.838-2.515,2.833,2.833,0,0,0-2.2-.918,2.917,2.917,0,0,0-2.222.918,3.52,3.52,0,0,0-.865,2.515v8.491h-2.981V70.662a3.556,3.556,0,0,0-.852-2.515,3.117,3.117,0,0,0-4.418,0,3.553,3.553,0,0,0-.852,2.515v8.491H286.73Z" transform="translate(-120.825 -27.152)" fill="#913c4d"></path><path id="Path_4047" data-name="Path 4047" d="M330.619,78.974a5,5,0,0,1-1.9-2.049,6.562,6.562,0,0,1-.679-3.048v-8.89h3.007v8.624a3.264,3.264,0,0,0,.892,2.4,3.33,3.33,0,0,0,4.592-.027,3.438,3.438,0,0,0,.9-2.5V64.987h2.982v14.4h-2.848V77.6a4.111,4.111,0,0,1-1.677,1.557,5.238,5.238,0,0,1-2.421.546,5.444,5.444,0,0,1-2.848-.732" transform="translate(-138.231 -27.385)" fill="#913c4d"></path><path id="Path_4048" data-name="Path 4048" d="M355.039,64.753h2.875V66.51a4.026,4.026,0,0,1,1.677-1.544,5.283,5.283,0,0,1,2.4-.532,5.583,5.583,0,0,1,2.795.692,5.1,5.1,0,0,1,1.93,1.9,5.482,5.482,0,0,1,.705,2.808v9.316h-2.981V70.662a3.458,3.458,0,0,0-.892-2.515,3.329,3.329,0,0,0-4.591,0,3.427,3.427,0,0,0-.9,2.515v8.491h-3.008Z" transform="translate(-149.609 -27.152)" fill="#913c4d"></path><path id="Path_4049" data-name="Path 4049" d="M382.455,55.6h3.008v3.46h-3.008Zm0,5.43h3.008v14.4h-3.008Z" transform="translate(-161.162 -23.43)" fill="#913c4d"></path><path id="Path_4050" data-name="Path 4050" d="M395.2,75.864a4.92,4.92,0,0,1-1.25-3.593V65.3h-2.529V62.582h.4a2.067,2.067,0,0,0,1.57-.586,2.214,2.214,0,0,0,.56-1.6V59.282h3.007v3.3h3.274V65.3h-3.274v6.84a2.524,2.524,0,0,0,.546,1.717,2.35,2.35,0,0,0,1.85.625,6.313,6.313,0,0,0,.985-.08v2.582c-.231.035-.5.071-.8.106a7.148,7.148,0,0,1-.825.053,4.693,4.693,0,0,1-3.513-1.278" transform="translate(-164.942 -24.981)" fill="#913c4d"></path><path id="Path_4051" data-name="Path 4051" d="M181.023,99.6h12.909V102.4h-9.768v5.962h8.7v2.795h-8.7v8.278h-3.141Z" transform="translate(-76.281 -41.971)" fill="#913c4d"></path><path id="Path_4052" data-name="Path 4052" d="M208.729,122.488a7.731,7.731,0,0,1-2.742-10.42,7.245,7.245,0,0,1,2.715-2.662,7.967,7.967,0,0,1,7.625,0,7.275,7.275,0,0,1,2.7,2.662,7.991,7.991,0,0,1-.013,7.759A7.339,7.339,0,0,1,216.3,122.5a7.817,7.817,0,0,1-7.572-.013m6.041-2.422a4.306,4.306,0,0,0,1.57-1.69,5.115,5.115,0,0,0,.572-2.435,5.037,5.037,0,0,0-.572-2.422,4.337,4.337,0,0,0-1.57-1.677,4.437,4.437,0,0,0-4.5,0,4.328,4.328,0,0,0-1.57,1.677,5.031,5.031,0,0,0-.573,2.422,5.109,5.109,0,0,0,.573,2.435,4.3,4.3,0,0,0,1.57,1.69,4.436,4.436,0,0,0,4.5,0" transform="translate(-86.38 -45.693)" fill="#913c4d"></path><path id="Path_4053" data-name="Path 4053" d="M237.425,122.974a5,5,0,0,1-1.9-2.049,6.562,6.562,0,0,1-.679-3.048v-8.89h3.007v8.624a3.265,3.265,0,0,0,.892,2.4,3.33,3.33,0,0,0,4.592-.027,3.438,3.438,0,0,0,.9-2.5v-8.491h2.982v14.4h-2.848V121.6a4.112,4.112,0,0,1-1.677,1.557,5.238,5.238,0,0,1-2.421.546,5.444,5.444,0,0,1-2.848-.732" transform="translate(-98.96 -45.926)" fill="#913c4d"></path><path id="Path_4054" data-name="Path 4054" d="M261.615,108.753h2.874v1.757a4.025,4.025,0,0,1,1.677-1.544,5.282,5.282,0,0,1,2.4-.532,5.587,5.587,0,0,1,2.8.692,5.107,5.107,0,0,1,1.929,1.9,5.483,5.483,0,0,1,.705,2.808v9.316H271.01v-8.491a3.456,3.456,0,0,0-.892-2.515,3.329,3.329,0,0,0-4.591,0,3.426,3.426,0,0,0-.9,2.515v8.491h-3.008Z" transform="translate(-110.241 -45.693)" fill="#913c4d"></path><path id="Path_4055" data-name="Path 4055" d="M290.4,118.521a7.187,7.187,0,0,1-2.581-2.7,8.246,8.246,0,0,1,0-7.665,7.092,7.092,0,0,1,2.581-2.688,7.014,7.014,0,0,1,3.687-.985,6.646,6.646,0,0,1,2.7.532,5.541,5.541,0,0,1,2.009,1.464V99.051h2.981V119.2h-2.847v-1.863a5.114,5.114,0,0,1-2.063,1.624,6.738,6.738,0,0,1-2.755.559,6.989,6.989,0,0,1-3.713-1m6.255-2.409a4.306,4.306,0,0,0,1.57-1.69,5.114,5.114,0,0,0,.572-2.435,5.037,5.037,0,0,0-.572-2.422,4.336,4.336,0,0,0-1.57-1.677,4.437,4.437,0,0,0-4.5,0,4.328,4.328,0,0,0-1.57,1.677,5.031,5.031,0,0,0-.573,2.422,5.219,5.219,0,0,0,.559,2.435,4.21,4.21,0,0,0,1.558,1.69,4.259,4.259,0,0,0,2.275.612,4.209,4.209,0,0,0,2.249-.612" transform="translate(-120.884 -41.739)" fill="#913c4d"></path><path id="Path_4056" data-name="Path 4056" d="M318.356,122.342A3.7,3.7,0,0,1,317,119.348a4.05,4.05,0,0,1,1.184-2.941,6.578,6.578,0,0,1,3.686-1.637l4.577-.745v-.559a2.2,2.2,0,0,0-.785-1.743,3.084,3.084,0,0,0-2.089-.679,3.6,3.6,0,0,0-2.089.612,3.639,3.639,0,0,0-1.318,1.624l-2.5-1.251a4.937,4.937,0,0,1,1.318-1.863,6.743,6.743,0,0,1,2.1-1.264,7.1,7.1,0,0,1,2.568-.466,6.753,6.753,0,0,1,3.007.639,5.056,5.056,0,0,1,2.049,1.77,4.656,4.656,0,0,1,.746,2.622v9.688h-2.875v-1.677a5.3,5.3,0,0,1-2,1.477,6.7,6.7,0,0,1-2.688.519,5.341,5.341,0,0,1-3.54-1.131m2.409-1.757a2.436,2.436,0,0,0,1.61.519,4.208,4.208,0,0,0,2.129-.519,3.784,3.784,0,0,0,1.424-1.424,3.945,3.945,0,0,0,.518-2v-.772l-3.992.692a3.107,3.107,0,0,0-1.757.745,1.912,1.912,0,0,0-.559,1.411,1.665,1.665,0,0,0,.625,1.344" transform="translate(-133.58 -45.693)" fill="#913c4d"></path><path id="Path_4057" data-name="Path 4057" d="M345.39,119.864a4.92,4.92,0,0,1-1.25-3.593V109.3h-2.528v-2.715h.4a2.066,2.066,0,0,0,1.57-.586,2.214,2.214,0,0,0,.559-1.6v-1.118h3.007v3.3h3.274V109.3h-3.274v6.84a2.524,2.524,0,0,0,.546,1.717,2.35,2.35,0,0,0,1.85.625,6.314,6.314,0,0,0,.985-.08v2.582c-.231.035-.5.071-.8.106a7.146,7.146,0,0,1-.825.053,4.693,4.693,0,0,1-3.513-1.278" transform="translate(-143.951 -43.522)" fill="#913c4d"></path><path id="Path_4058" data-name="Path 4058" d="M361.39,99.6H364.4v3.46H361.39Zm0,5.429H364.4v14.4H361.39Z" transform="translate(-152.285 -41.972)" fill="#913c4d"></path><path id="Path_4059" data-name="Path 4059" d="M374.7,122.488a7.731,7.731,0,0,1-2.742-10.42,7.245,7.245,0,0,1,2.715-2.662,7.967,7.967,0,0,1,7.625,0,7.274,7.274,0,0,1,2.7,2.662,7.991,7.991,0,0,1-.013,7.759,7.339,7.339,0,0,1-2.714,2.675,7.817,7.817,0,0,1-7.572-.013m6.041-2.422a4.306,4.306,0,0,0,1.57-1.69,5.115,5.115,0,0,0,.572-2.435,5.038,5.038,0,0,0-.572-2.422,4.337,4.337,0,0,0-1.57-1.677,4.437,4.437,0,0,0-4.5,0,4.328,4.328,0,0,0-1.57,1.677,5.031,5.031,0,0,0-.573,2.422,5.109,5.109,0,0,0,.573,2.435,4.3,4.3,0,0,0,1.57,1.69,4.436,4.436,0,0,0,4.5,0" transform="translate(-156.317 -45.693)" fill="#913c4d"></path><path id="Path_4060" data-name="Path 4060" d="M401.318,108.753h2.875v1.757a4.026,4.026,0,0,1,1.677-1.544,5.283,5.283,0,0,1,2.4-.532,5.583,5.583,0,0,1,2.795.692,5.1,5.1,0,0,1,1.93,1.9,5.482,5.482,0,0,1,.705,2.808v9.316h-2.981v-8.491a3.458,3.458,0,0,0-.892-2.515,3.329,3.329,0,0,0-4.591,0,3.427,3.427,0,0,0-.9,2.515v8.491h-3.008Z" transform="translate(-169.111 -45.693)" fill="#913c4d"></path><path id="Path_4061" data-name="Path 4061" d="M200.985,29.43l-2.262-2.262a10.475,10.475,0,1,0-2.222,2.22l2.263,2.263Zm-10.666-1.146a7.332,7.332,0,1,1,6.148-3.372l-2.258-2.258-2.221,2.221,2.255,2.256a7.26,7.26,0,0,1-3.925,1.153" transform="translate(-75.794 -4.435)" fill="#341b37"></path><path id="Path_4062" data-name="Path 4062" d="M423.465,64.982h-3.246l-4.044,10.571-4.05-10.571h-3.217l5.766,14.477-1.854,4.82h3.224l7.422-19.295h0Z" transform="translate(-172.308 -27.382)" fill="#913c4d"></path></g></svg> 