<?xml version="1.0" encoding="utf-8"?>
<!-- Generator: Adobe Illustrator 26.2.1, SVG Export Plug-In . SVG Version: 6.00 Build 0)  -->
<svg version="1.1" id="LOGO" xmlns="http://www.w3.org/2000/svg" xmlns:xlink="http://www.w3.org/1999/xlink" x="0px" y="0px"
	 viewBox="0 0 283.5 187.6" style="enable-background:new 0 0 283.5 187.6;" xml:space="preserve">
<style type="text/css">
	.st0{fill:#0A1428;}
</style>
<path class="st0" d="M82.8,59.3V46.6h0.2l11.7,11.7c1.4,1.3,3.3,1.9,5.1,1.8c6.8,0,11.4-3.5,11.4-9.7c0-5.7-3.9-8.4-11.9-11.9
	l-3.6-1.6c-7.3-3.3-14.9-8.6-14.9-18.9C80.9,7,89.7,0,103.3,0c5.6,0,11.1,0.6,16.6,1.9v12.7h-0.2L108,3c-1.1-1-2.7-1.5-4.2-1.4
	C98,1.7,93.8,5,93.8,11c0,5.2,3.8,7.7,9.9,10.6l3.9,1.9c9.1,4.3,16.9,8.5,16.9,18.8c0,11.6-9.6,19.6-24.1,19.6
	C94.4,61.6,88.5,60.8,82.8,59.3z M131.4,186.7l4-3.9c0.6-0.5,0.9-1.3,0.8-2.1v-47.6c0.1-0.8-0.2-1.5-0.8-2l-4-4v-0.2l19.1-2.3v56
	c-0.1,0.8,0.2,1.6,0.9,2.1l4.1,4.1v0.2h-24.1V186.7z M202,166.2c0-16.6,11.8-22.3,23-22.3c4.9,0,9.8,0.9,14.5,2.5l-6,6h-0.2l-6-6
	c-0.6-0.7-1.4-1-2.3-1c-4.8,0-7.6,5.5-7.6,16.5c0,13.1,5.7,17.3,11.4,17.3c4.6,0,8.2-2.5,10.4-6.8h0.2c-1.5,9.2-7.4,15-17.3,15
	C211.7,187.6,202,180.7,202,166.2L202,166.2z M242.6,166c0-15.8,9.8-22.1,21.5-22.1c9.2,0,19,4.4,19,18.1c0,0.6,0,1.3-0.1,1.9h-25.6
	v0.9c0,9.9,5.5,14.7,12.3,14.7c5.4,0.1,10.5-2.9,12.9-7.8h0.2c-2,10.8-8.9,15.9-19.1,15.9C252.9,187.6,242.6,181,242.6,166
	L242.6,166z M269.8,162.4c0-10.1-0.9-16.9-6-16.9c-4.4,0-6.2,5.3-6.4,16.9H269.8z M140.6,47.7l7.5,7.6l-7.6,7.6l-7.5-7.6L140.6,47.7
	z M243.8,62.6v13.1h0.2l13.1-13.1L243.8,62.6z M133.4,32.2V11h-3.2V9.8h2.7c0.7,0.1,1.4-0.1,1.9-0.7l9-9h0.1v9.7h7.4V11h-7.4v20.5
	c0,2.7,1.2,4.2,3.2,4.2c1.5,0,2.8-0.8,3.5-2.1l0.1,0.1c-0.6,4.5-4.5,7.7-9,7.5C136.4,41.2,133.4,37.7,133.4,32.2z M57,108.1
	c-1.7,4.9-6.4,8.2-11.6,8.1c-6.3,0-11.7-4.1-11.7-11.9c0-8.6,7.1-13.1,14.9-13.1c3-0.1,6,0.6,8.6,2c0-3.1,0.1-6.2,0.1-9.4
	c0-5.8-1.8-9.6-5.8-9.6c-1-0.1-1.9,0.3-2.6,1l-6.5,6.5h-0.2l-5.9-5.9c5.5-2,11.2-3.1,17.1-3.2c6.1,0,10.7,1,13.7,3.8
	c2.7,2.6,4.3,6.8,4.3,13.3c0,3.3-0.4,10-0.6,15.2c-0.1,3.4,0.7,4.9,2.4,4.9c1,0,1.9-0.6,2.2-1.5h0.2c0,1.1-0.2,2.2-0.6,3.2
	c-1.5,3-4.4,4.7-8.6,4.7C61.5,116.2,57.4,113.3,57,108.1z M52.3,109.8c1.9,0,3.7-1.1,4.7-2.7c0.1-4.3,0.2-8.4,0.2-12.7
	c-1-0.3-2-0.5-3-0.5c-4.5,0-6.8,3.8-6.8,8.8S49.5,109.8,52.3,109.8L52.3,109.8z M180.8,179.5c-1.7,4.9-6.4,8.2-11.6,8.1
	c-6.3,0-11.7-4.1-11.7-11.9c0-8.6,7.1-13.1,14.9-13.1c3-0.1,6,0.6,8.6,2c0-3.2,0.1-6.2,0.1-9.4c0-5.8-1.8-9.6-5.8-9.6
	c-1,0-1.9,0.3-2.6,1l-6.5,6.5H166l-5.9-5.9c5.5-2,11.2-3.1,17.1-3.2c6.1,0,10.7,1,13.7,3.8c2.7,2.6,4.3,6.8,4.3,13.3
	c0,3.3-0.4,10-0.6,15.2c-0.1,3.4,0.7,5,2.4,5c1,0,1.9-0.6,2.2-1.5h0.2c0,1.1-0.2,2.2-0.6,3.2c-1.5,3-4.4,4.7-8.6,4.7
	C185.2,187.6,181.1,184.7,180.8,179.5z M176.1,181.2c1.9,0,3.7-1.1,4.7-2.7c0.1-4.3,0.2-8.4,0.2-12.7c-1-0.3-2-0.5-3-0.5
	c-4.5,0-6.8,3.8-6.8,8.8S173.3,181.2,176.1,181.2z M131.5,115.3l3.9-3.9c0.6-0.5,0.9-1.2,0.9-2c0-1.4,0.3-13.6,0.3-17.9
	c0-6.8-1.2-11.7-6.5-11.7c-2.6,0.1-5,1.4-6.6,3.5c0.5,2.4,0.8,4.9,0.8,7.3c0,5.4-0.2,11.9-0.2,18.6c-0.1,0.8,0.2,1.5,0.8,2l4.1,4.1
	v0.2h-24.1v-0.2l3.9-3.9c0.6-0.5,0.9-1.2,0.9-2c0-1.4,0.3-13.6,0.3-17.9c0-6.8-1.2-11.7-6.5-11.7c-2.8,0-4.7,1.4-6.2,3.7v25.8
	c-0.1,0.8,0.2,1.6,0.9,2.1l4.1,4.1v0.2H77.9v-0.2l4-4c0.8-0.7,0.8-1,0.8-2.1V79.5c0.1-0.8-0.2-1.6-0.8-2.1l-4-4v-0.2H97v9.1
	c2.1-5.9,6.6-9.8,13.7-9.8c6.7,0,10.8,3.7,12.6,9.9c2.2-6,7.9-10,14.3-9.9c8.6,0,13.4,6.2,13.4,18c0,5.6-0.2,11.9-0.3,18.6
	c-0.1,0.8,0.2,1.5,0.8,2l4.1,4.1v0.2h-24.1V115.3z M157.1,94.7c0-15.8,9.8-22.1,21.5-22.1c9.2,0,19,4.4,19,18.1c0,0.6,0,1.3-0.1,1.9
	H172v0.9c0,9.9,5.6,14.7,12.3,14.7c5.4,0.1,10.5-2.9,12.9-7.8h0.2c-2,10.8-8.9,15.9-19.1,15.9C167.5,116.2,157.1,109.6,157.1,94.7
	L157.1,94.7z M184.4,91c0-10.1-0.9-16.9-6-16.9c-4.4,0-6.2,5.3-6.4,16.9H184.4z M201.9,113.4l5.8-5.8h0.2l5.9,5.9
	c1.1,0.8,2.4,1.2,3.8,1.1c4.9,0,8-2.5,8-6.1c0-3.4-2.6-4.9-8.3-7.5l-5.7-2.7c-4.8-2.2-8.5-6.1-8.5-12.3c0-8.1,6.7-13.5,17.8-13.5
	c5.2,0,10.3,0.8,15.3,2.2l-6,6h-0.2l-5.5-5.5c-0.9-0.8-2-1.2-3.2-1.1c-3.8,0-6.8,1.9-6.8,5.8c0,3.8,2.8,5.6,7.9,7.9l5.5,2.4
	c5.3,2.3,9.5,5.1,9.5,11.8c0,9.2-7.8,14.2-19.3,14.2C212.4,116.2,207,115.3,201.9,113.4L201.9,113.4z M248.2,113.4l5.8-5.8h0.2
	l5.9,5.9c1.1,0.8,2.4,1.2,3.8,1.1c4.9,0,8-2.5,8-6.1c0-3.4-2.6-4.9-8.3-7.5l-5.7-2.7c-4.8-2.2-8.5-6.1-8.5-12.3
	c0-8.1,6.7-13.5,17.8-13.5c5.2,0,10.3,0.8,15.3,2.2l-6,6h-0.1l-5.5-5.5c-0.9-0.8-2-1.2-3.2-1.1c-3.8,0-6.8,1.9-6.8,5.8
	c0,3.8,2.8,5.6,7.9,7.9l5.5,2.4c5.3,2.3,9.5,5.1,9.5,11.8c0,9.2-7.8,14.2-19.3,14.2C258.8,116.2,253.3,115.3,248.2,113.4
	L248.2,113.4z M104.1,164.6c15.3,0,25.8-6,25.8-19.6s-11.7-18.1-23.6-18.1H76.4v0.2l5.5,5.5c0.7,0.4,1,1.3,0.9,2.1v44.6
	c0.2,0.8-0.2,1.6-0.9,2.1l-5.5,5.5v0.2h28.5v-0.2l-5.5-5.5c-0.7-0.4-1-1.3-0.9-2.1v-14.6H104.1z M98.6,130.2c0-1.4,0.2-1.6,1.5-1.6
	h3.2c6.3,0,9.9,6.9,9.9,16.8c0,10.6-3.8,17.5-10.8,17.5h-3.8V130.2z M11.7,109V63.2c0.1-0.8-0.2-1.6-0.9-2.1l-5.5-5.5v-0.2H34v0.2
	l-5.5,5.5c-0.7,0.5-1,1.3-0.9,2.1v43.3c0,15.3-9.3,26.5-27.5,27L0,133.3C8.1,128.9,11.7,121.5,11.7,109z"/>
</svg>
